Coordinates
version=1
nRows=25
nColumns=33
inDegrees=yes

Units are S.I. units (second, meters, Newtons, ...)
Angles are in degrees.

endheader
time	ground_thorax_rot_x	ground_thorax_rot_y	ground_thorax_rot_z	ground_thorax_tx	ground_thorax_ty	ground_thorax_tz	clav_prot_r	clav_elev_r	scapula_abduction_r	scapula_elevation_r	scapula_upward_rot_r	scapula_winging_r	shoulder_elv_r	plane_of_elev_r	axial_rot_r	elbow_flexion_r	pro_sup_r	wrist_flex_r	wrist_dev_r	clav_prot_l	clav_elev_l	scapula_abduction_l	scapula_elevation_l	scapula_upward_rot_l	scapula_winging_l	shoulder_elv_l	plane_of_elev_l	axial_rot_l	elbow_flexion_l	pro_sup_l	wrist_flex_l	wrist_dev_l	
11.6200	39.495794	10.995546	13.818634	-220.186288	840.442825	7.305807	12.394175	39.310116	38.588148	45.000000	-32.139847	2069.075278	-832.233018	146.469874	-129.557008	1100.052890	95.057151	14.357369	0.955645	8.376722	-45.000000	-36.507843	45.000000	-44.757111	-2061.354954	267.847080	138.478945	151.556633	2530.676910	5.276119	5.581889	-19.652040	
11.6300	39.495740	11.068870	13.916832	-218.032421	839.448952	7.291715	12.426445	39.393173	38.685366	45.000000	-31.829542	2069.107824	-832.319526	146.487985	-129.809679	1099.964389	94.036730	14.595036	0.951019	8.330181	-45.000000	-36.556212	45.000000	-44.615982	-2061.581661	267.776032	138.428237	151.872384	2530.629994	4.210435	5.896169	-19.607738	
11.6400	39.497881	11.129124	14.008728	-215.784600	838.363310	7.281969	12.499702	39.496486	38.802603	45.000000	-31.530044	2069.119271	-832.429978	146.474301	-130.063968	1099.839744	92.767763	14.869004	0.967848	8.258169	-45.000000	-36.592256	45.000000	-44.441302	-2061.829400	267.694195	138.393065	152.162014	2530.584082	3.132811	6.218233	-19.549516	
11.6500	39.495480	11.188994	14.103882	-213.443773	837.181415	7.276293	12.572891	39.598702	38.918126	45.000000	-31.229628	2069.143303	-832.547957	146.459072	-130.338349	1099.678992	91.200858	15.174907	1.012868	8.184857	-45.000000	-36.629092	45.000000	-44.222750	-2062.080821	267.595780	138.365893	152.414602	2530.531935	2.061206	6.549173	-19.475043	
11.6600	39.494064	11.241315	14.199746	-211.011604	835.899835	7.274317	12.695837	39.722416	39.055346	45.000000	-30.942661	2069.151212	-832.687046	146.426473	-130.613329	1099.472074	89.247835	15.519460	1.094177	8.075328	-45.000000	-36.648570	45.000000	-43.985797	-2062.353882	267.487636	138.354432	152.647694	2530.481439	0.990096	6.885142	-19.385959	
11.6700	39.488370	11.297053	14.308536	-208.490063	834.516444	7.275667	12.845572	39.855638	39.202376	45.000000	-30.646052	2069.174981	-832.833838	146.421456	-130.890482	1099.211945	86.772883	15.900287	1.225210	7.937761	-45.000000	-36.654841	45.000000	-43.730637	-2062.638203	267.365771	138.352837	152.861517	2530.422423	-0.076089	7.231418	-19.278739	
11.6800	39.477975	11.359690	14.430018	-205.881122	833.030506	7.280053	13.010975	39.993975	39.356985	44.999999	-30.351212	2069.202388	-832.994803	146.432540	-131.167959	1098.886279	83.655443	16.315975	1.425077	7.785856	-45.000000	-36.652090	45.000000	-43.477280	-2062.934633	267.231947	138.356361	153.070436	2530.358065	-1.124530	7.582458	-19.155016	
11.6900	39.457974	11.439340	14.568828	-203.186601	831.442746	7.287363	13.144092	40.114248	39.493788	44.999999	-30.046439	2069.260194	-833.159676	146.478554	-131.436676	1098.481881	79.730480	16.755418	1.723183	7.651146	-45.000000	-36.650789	45.000000	-43.221291	-2063.227382	267.082675	138.351138	153.269390	2530.280524	-2.123277	7.932676	-19.014707	
11.7000	39.432960	11.531107	14.716463	-200.407962	829.755187	7.297706	13.259555	40.224370	39.623559	44.999998	-29.766153	2069.315342	-833.346736	146.520037	-131.673100	1097.984375	74.890727	17.208628	2.147616	7.533311	-45.000000	-36.646164	45.000000	-42.978655	-2063.525406	266.923497	138.338805	153.464263	2530.199798	-3.044989	8.267852	-18.864724	
11.7100	39.411155	11.616507	14.860915	-197.546558	827.971144	7.311413	13.422288	40.351843	39.766554	44.999997	-29.447779	2069.385453	-833.562597	146.617997	-131.771868	1097.344246	68.493348	17.660895	2.771529	7.363019	-45.000000	-36.612373	45.000000	-42.708997	-2063.833502	266.752405	138.325658	153.623059	2530.110681	-3.884882	8.597984	-18.701889	
11.7200	39.381013	11.726832	15.019198	-194.603335	826.095212	7.328913	13.506309	40.444541	39.882212	44.999994	-29.168912	2069.470389	-833.807423	146.725035	-131.743708	1096.568726	60.582746	18.072424	3.621200	7.258923	-45.000000	-36.593959	45.000000	-42.456491	-2064.126282	266.565092	138.294243	153.749825	2530.018083	-4.604459	8.898037	-18.536028	
11.7300	39.345327	11.852962	15.188253	-191.579470	824.133025	7.350700	13.564710	40.526249	39.973807	44.999990	-28.884702	2069.577483	-834.116065	146.895653	-131.342217	1095.578428	49.692932	18.358687	4.877830	7.171114	-45.000000	-36.584417	45.000000	-42.184086	-2064.410847	266.361554	138.268017	153.815518	2529.926141	-5.196799	9.174678	-18.368541	
11.7400	39.295830	12.019717	15.387127	-188.476072	822.091137	7.377152	13.533991	40.566539	40.020559	44.999982	-28.688661	2069.696999	-834.471819	147.061609	-130.696409	1094.490741	37.195519	18.488751	6.410321	7.167919	-45.000000	-36.606801	45.000000	-41.972170	-2064.688332	266.153062	138.236870	153.886867	2529.841808	-5.628691	9.410946	-18.211544	
11.7500	39.245602	12.193725	15.597898	-185.294987	819.976631	7.408508	13.554948	40.624069	40.065957	44.999968	-28.501418	2069.829747	-834.866550	147.269019	-129.815712	1093.382283	23.917554	18.463598	8.101766	7.120436	-45.000000	-36.620371	45.000000	-41.781188	-2064.987728	265.947482	138.224499	153.971844	2529.765097	-5.903256	9.630819	-18.063269	
11.7600	39.185743	12.401140	15.837948	-182.038482	817.796956	7.444717	13.514773	40.649458	40.081286	44.999942	-28.413095	2069.967009	-835.248090	147.412858	-129.037489	1092.458699	12.808609	18.337362	9.613979	7.139879	-45.000000	-36.650912	45.000000	-41.704059	-2065.297443	265.752048	138.196620	154.141772	2529.691734	-5.980234	9.812541	-17.933644	
11.7700	39.131368	12.604409	16.081480	-178.710112	815.559382	7.485485	13.540353	40.699269	40.106685	44.999896	-28.321708	2070.105163	-835.619216	147.544716	-128.323844	1091.733461	4.029236	18.139124	10.890889	7.109089	-45.000000	-36.660692	45.000000	-41.665818	-2065.635764	265.563798	138.177798	154.360624	2529.622201	-5.861728	9.977673	-17.819839	
11.7800	39.081473	12.815257	16.335545	-175.314239	813.270879	7.530189	13.585648	40.750021	40.140321	44.999814	-28.270438	2070.240996	-835.941823	147.617154	-127.909661	1091.303705	-0.763038	17.946989	11.723350	7.069721	-45.000000	-36.646785	45.000000	-41.716432	-2065.996226	265.384830	138.143368	154.652361	2529.551083	-5.544198	10.116129	-17.725747	
11.7900	39.045378	13.011706	16.585617	-171.856630	810.937972	7.577948	13.716836	40.832523	40.206652	44.999667	-28.180554	2070.377690	-836.229182	147.688547	-127.688433	1091.075892	-2.690561	17.790062	12.204846	6.953906	-45.000000	-36.587811	45.000000	-41.787944	-2066.377915	265.205786	138.109869	154.944972	2529.476451	-5.067838	10.244577	-17.645375	
11.8000	39.011946	13.223543	16.850263	-168.344000	808.566944	7.627597	13.821587	40.901129	40.270165	44.999404	-28.117657	2070.516529	-836.484552	147.725459	-127.659960	1090.990611	-2.380004	17.676308	12.415391	6.865010	-45.000000	-36.513291	45.000000	-41.923160	-2066.759918	265.021681	138.059225	155.236482	2529.394792	-4.452444	10.346213	-17.581231	
11.8100	38.981566	13.444902	17.124784	-164.784137	806.163799	7.677787	13.927408	40.965791	40.326764	44.998933	-28.060195	2070.663018	-836.743765	147.767044	-127.600637	1090.899217	-2.006261	17.559951	12.608367	6.779750	-45.000000	-36.429081	45.000000	-42.076551	-2067.140495	264.829861	138.013326	155.474679	2529.309773	-3.729168	10.430200	-17.530586	
11.8200	38.952827	13.677755	17.409992	-161.185195	803.734428	7.727038	14.034255	41.026648	40.376688	44.998087	-28.027174	2070.815237	-837.004511	147.806589	-127.535231	1090.799237	-1.566662	17.445351	12.792702	6.696755	-45.000000	-36.331957	45.000000	-42.267947	-2067.526577	264.633821	137.969045	155.694362	2529.221214	-2.910776	10.497090	-17.493800	
11.8300	38.925314	13.918155	17.705864	-157.555814	801.285035	7.773837	14.144725	41.084843	40.417650	44.996576	-28.010097	2070.978277	-837.264545	147.846447	-127.463860	1090.694302	-1.055525	17.335415	12.966582	6.611782	-45.000000	-36.225134	45.000000	-42.487322	-2067.915479	264.434059	137.931952	155.886759	2529.126819	-2.003582	10.549835	-17.469665	
11.8400	38.902881	14.154112	18.001513	-153.904502	798.822185	7.816731	14.295135	41.163280	40.466002	44.993859	-27.974161	2071.149344	-837.527414	147.914600	-127.361564	1090.588810	-0.459820	17.236125	13.126139	6.489153	-45.000000	-36.101564	45.000000	-42.710666	-2068.316833	264.223674	137.912373	156.069462	2529.030267	-1.007963	10.595206	-17.457836	
11.8500	38.883641	14.388304	18.298464	-150.239628	796.353288	7.854391	14.470980	41.251782	40.518992	44.989021	-27.926378	2071.330124	-837.789122	148.006122	-127.231333	1090.483050	0.226469	17.148774	13.267994	6.342171	-45.000000	-35.967506	45.000000	-42.945625	-2068.725750	264.008400	137.905384	156.235183	2528.930259	0.072381	10.632960	-17.457626	
11.8600	38.866937	14.619073	18.593066	-146.568971	793.886605	7.885685	14.663408	41.348296	40.575125	44.980274	-27.859994	2071.513787	-838.049475	148.118924	-127.072322	1090.376556	1.007391	17.074179	13.389144	6.176946	-45.000000	-35.822441	45.000000	-43.184981	-2069.138922	263.786184	137.906984	156.386632	2528.830894	1.230523	10.661353	-17.469555	
